<mxfile host="Electron" modified="2024-06-30T15:36:20.479Z" agent="Mozilla/5.0 (Windows NT 10.0; Win64; x64) AppleWebKit/537.36 (KHTML, like Gecko) draw.io/24.6.4 Chrome/124.0.6367.207 Electron/30.0.6 Safari/537.36" etag="lrdZrX-YijrJ_wCqY2UM" version="24.6.4" type="device">
  <diagram id="prtHgNgQTEPvFCAcTncT" name="Page-1">
    <mxGraphModel dx="2625" dy="2054" grid="1" gridSize="10" guides="1" tooltips="1" connect="1" arrows="1" fold="1" page="1" pageScale="1" pageWidth="827" pageHeight="1169" math="0" shadow="0">
      <root>
        <mxCell id="0" />
        <mxCell id="1" parent="0" />
        <mxCell id="dNxyNK7c78bLwvsdeMH5-11" value="QWidget Family" style="swimlane;html=1;startSize=20;horizontal=1;containerType=tree;glass=0;" parent="1" vertex="1">
          <mxGeometry x="-1240" y="130" width="1840" height="490" as="geometry">
            <mxRectangle x="40" y="80" width="90" height="30" as="alternateBounds" />
          </mxGeometry>
        </mxCell>
        <mxCell id="CuxPN7iVu_fF-7CzVSLN-39" style="edgeStyle=none;curved=1;rounded=0;orthogonalLoop=1;jettySize=auto;html=1;exitX=0;exitY=1;exitDx=0;exitDy=0;entryX=0.5;entryY=0;entryDx=0;entryDy=0;fontSize=12;startSize=8;endSize=8;" parent="dNxyNK7c78bLwvsdeMH5-11" source="dNxyNK7c78bLwvsdeMH5-12" target="dNxyNK7c78bLwvsdeMH5-14" edge="1">
          <mxGeometry relative="1" as="geometry" />
        </mxCell>
        <mxCell id="CuxPN7iVu_fF-7CzVSLN-40" style="edgeStyle=none;curved=1;rounded=0;orthogonalLoop=1;jettySize=auto;html=1;exitX=0.5;exitY=1;exitDx=0;exitDy=0;entryX=0.5;entryY=0;entryDx=0;entryDy=0;fontSize=12;startSize=8;endSize=8;" parent="dNxyNK7c78bLwvsdeMH5-11" source="dNxyNK7c78bLwvsdeMH5-12" target="CuxPN7iVu_fF-7CzVSLN-29" edge="1">
          <mxGeometry relative="1" as="geometry" />
        </mxCell>
        <mxCell id="CuxPN7iVu_fF-7CzVSLN-41" style="edgeStyle=none;curved=1;rounded=0;orthogonalLoop=1;jettySize=auto;html=1;exitX=0.25;exitY=1;exitDx=0;exitDy=0;entryX=0.5;entryY=0;entryDx=0;entryDy=0;fontSize=12;startSize=8;endSize=8;" parent="dNxyNK7c78bLwvsdeMH5-11" source="dNxyNK7c78bLwvsdeMH5-12" target="dNxyNK7c78bLwvsdeMH5-16" edge="1">
          <mxGeometry relative="1" as="geometry" />
        </mxCell>
        <mxCell id="CuxPN7iVu_fF-7CzVSLN-42" style="edgeStyle=none;curved=1;rounded=0;orthogonalLoop=1;jettySize=auto;html=1;exitX=0.75;exitY=1;exitDx=0;exitDy=0;entryX=0.5;entryY=0;entryDx=0;entryDy=0;fontSize=12;startSize=8;endSize=8;" parent="dNxyNK7c78bLwvsdeMH5-11" source="dNxyNK7c78bLwvsdeMH5-12" target="dNxyNK7c78bLwvsdeMH5-18" edge="1">
          <mxGeometry relative="1" as="geometry" />
        </mxCell>
        <mxCell id="CuxPN7iVu_fF-7CzVSLN-43" style="edgeStyle=none;curved=1;rounded=0;orthogonalLoop=1;jettySize=auto;html=1;entryX=0.5;entryY=0;entryDx=0;entryDy=0;fontSize=12;startSize=8;endSize=8;exitX=1;exitY=1;exitDx=0;exitDy=0;" parent="dNxyNK7c78bLwvsdeMH5-11" source="dNxyNK7c78bLwvsdeMH5-12" target="CuxPN7iVu_fF-7CzVSLN-26" edge="1">
          <mxGeometry relative="1" as="geometry">
            <mxPoint x="700" y="140" as="sourcePoint" />
          </mxGeometry>
        </mxCell>
        <UserObject label="QWidget" name="Tessa Miller" position="CFO" location="Office 1" email="me@example.com" placeholders="1" link="https://www.draw.io" id="dNxyNK7c78bLwvsdeMH5-12">
          <mxCell style="label;image=https://cdn3.iconfinder.com/data/icons/user-avatars-1/512/users-3-128.png;whiteSpace=wrap;html=1;rounded=0;glass=0;treeMoving=1;treeFolding=1;" parent="dNxyNK7c78bLwvsdeMH5-11" vertex="1">
            <mxGeometry x="480" y="55" width="180" height="80" as="geometry" />
          </mxCell>
        </UserObject>
        <UserObject label="QAbstractButton" name="Edward Morrison" position="Brand Manager" location="Office 2" email="me@example.com" placeholders="1" link="https://www.draw.io" id="dNxyNK7c78bLwvsdeMH5-14">
          <mxCell style="label;image=https://cdn3.iconfinder.com/data/icons/user-avatars-1/512/users-10-3-128.png;whiteSpace=wrap;html=1;rounded=0;glass=0;treeFolding=1;treeMoving=1;" parent="dNxyNK7c78bLwvsdeMH5-11" vertex="1">
            <mxGeometry x="70" y="230" width="180" height="80" as="geometry" />
          </mxCell>
        </UserObject>
        <UserObject label="QLineEdit" name="Evan Valet" position="HR Director" location="Office 4" email="me@example.com" placeholders="1" link="https://www.draw.io" id="dNxyNK7c78bLwvsdeMH5-16">
          <mxCell style="label;image=https://cdn3.iconfinder.com/data/icons/user-avatars-1/512/users-9-2-128.png;whiteSpace=wrap;html=1;rounded=0;glass=0;treeFolding=1;treeMoving=1;" parent="dNxyNK7c78bLwvsdeMH5-11" vertex="1">
            <mxGeometry x="270" y="230" width="180" height="80" as="geometry" />
          </mxCell>
        </UserObject>
        <UserObject label="QStatusBar" name="Alison Donovan" position="System Admin" location="Office 3" email="me@example.com" placeholders="1" link="https://www.draw.io" id="dNxyNK7c78bLwvsdeMH5-18">
          <mxCell style="label;image=https://cdn3.iconfinder.com/data/icons/user-avatars-1/512/users-2-128.png;whiteSpace=wrap;html=1;rounded=0;glass=0;" parent="dNxyNK7c78bLwvsdeMH5-11" vertex="1">
            <mxGeometry x="680" y="230" width="180" height="80" as="geometry" />
          </mxCell>
        </UserObject>
        <mxCell id="CuxPN7iVu_fF-7CzVSLN-1" value="" style="endArrow=blockThin;endFill=1;fontSize=11;edgeStyle=elbowEdgeStyle;elbow=vertical;rounded=0;" parent="dNxyNK7c78bLwvsdeMH5-11" source="dNxyNK7c78bLwvsdeMH5-14" target="CuxPN7iVu_fF-7CzVSLN-2" edge="1">
          <mxGeometry relative="1" as="geometry">
            <mxPoint x="250" y="260" as="sourcePoint" />
          </mxGeometry>
        </mxCell>
        <UserObject label="QPushButton" name="Edward Morrison" position="Brand Manager" location="Office 2" email="me@example.com" placeholders="1" link="https://www.draw.io" id="CuxPN7iVu_fF-7CzVSLN-2">
          <mxCell style="label;image=https://cdn3.iconfinder.com/data/icons/user-avatars-1/512/users-10-3-128.png;whiteSpace=wrap;html=1;rounded=0;glass=0;treeFolding=1;treeMoving=1;" parent="dNxyNK7c78bLwvsdeMH5-11" vertex="1">
            <mxGeometry x="70" y="380" width="180" height="80" as="geometry" />
          </mxCell>
        </UserObject>
        <UserObject label="QMenu" name="Tessa Miller" position="CFO" location="Office 1" email="me@example.com" placeholders="1" link="https://www.draw.io" id="CuxPN7iVu_fF-7CzVSLN-26">
          <mxCell style="label;image=https://cdn3.iconfinder.com/data/icons/user-avatars-1/512/users-3-128.png;whiteSpace=wrap;html=1;rounded=0;glass=0;treeMoving=1;treeFolding=1;" parent="dNxyNK7c78bLwvsdeMH5-11" vertex="1">
            <mxGeometry x="870" y="230" width="180" height="80" as="geometry" />
          </mxCell>
        </UserObject>
        <UserObject label="QMainWindow" name="Tessa Miller" position="CFO" location="Office 1" email="me@example.com" placeholders="1" link="https://www.draw.io" id="CuxPN7iVu_fF-7CzVSLN-29">
          <mxCell style="label;image=https://cdn3.iconfinder.com/data/icons/user-avatars-1/512/users-3-128.png;whiteSpace=wrap;html=1;rounded=0;glass=0;treeMoving=1;treeFolding=1;" parent="dNxyNK7c78bLwvsdeMH5-11" vertex="1">
            <mxGeometry x="480" y="230" width="180" height="80" as="geometry" />
          </mxCell>
        </UserObject>
        <mxCell id="CuxPN7iVu_fF-7CzVSLN-84" style="edgeStyle=none;curved=1;rounded=0;orthogonalLoop=1;jettySize=auto;html=1;entryX=0.5;entryY=0;entryDx=0;entryDy=0;fontSize=12;startSize=8;endSize=8;exitX=1;exitY=1;exitDx=0;exitDy=0;" parent="dNxyNK7c78bLwvsdeMH5-11" source="dNxyNK7c78bLwvsdeMH5-12" target="CuxPN7iVu_fF-7CzVSLN-85" edge="1">
          <mxGeometry relative="1" as="geometry">
            <mxPoint x="-580" y="265" as="sourcePoint" />
          </mxGeometry>
        </mxCell>
        <UserObject label="QDialog" name="Tessa Miller" position="CFO" location="Office 1" email="me@example.com" placeholders="1" link="https://www.draw.io" id="CuxPN7iVu_fF-7CzVSLN-85">
          <mxCell style="label;image=https://cdn3.iconfinder.com/data/icons/user-avatars-1/512/users-3-128.png;whiteSpace=wrap;html=1;rounded=0;glass=0;treeMoving=1;treeFolding=1;" parent="dNxyNK7c78bLwvsdeMH5-11" vertex="1">
            <mxGeometry x="1340" y="240" width="180" height="80" as="geometry" />
          </mxCell>
        </UserObject>
        <mxCell id="CuxPN7iVu_fF-7CzVSLN-86" style="edgeStyle=none;curved=1;rounded=0;orthogonalLoop=1;jettySize=auto;html=1;entryX=0.5;entryY=0;entryDx=0;entryDy=0;fontSize=12;startSize=8;endSize=8;exitX=0.5;exitY=1;exitDx=0;exitDy=0;" parent="dNxyNK7c78bLwvsdeMH5-11" source="CuxPN7iVu_fF-7CzVSLN-85" target="CuxPN7iVu_fF-7CzVSLN-87" edge="1">
          <mxGeometry relative="1" as="geometry">
            <mxPoint x="-580" y="265" as="sourcePoint" />
          </mxGeometry>
        </mxCell>
        <UserObject label="QFileDialog" name="Tessa Miller" position="CFO" location="Office 1" email="me@example.com" placeholders="1" link="https://www.draw.io" id="CuxPN7iVu_fF-7CzVSLN-87">
          <mxCell style="label;image=https://cdn3.iconfinder.com/data/icons/user-avatars-1/512/users-3-128.png;whiteSpace=wrap;html=1;rounded=0;glass=0;treeMoving=1;treeFolding=1;" parent="dNxyNK7c78bLwvsdeMH5-11" vertex="1">
            <mxGeometry x="1530" y="350" width="180" height="80" as="geometry" />
          </mxCell>
        </UserObject>
        <mxCell id="CuxPN7iVu_fF-7CzVSLN-88" style="edgeStyle=none;curved=1;rounded=0;orthogonalLoop=1;jettySize=auto;html=1;entryX=0.5;entryY=0;entryDx=0;entryDy=0;fontSize=12;startSize=8;endSize=8;exitX=0.5;exitY=1;exitDx=0;exitDy=0;" parent="dNxyNK7c78bLwvsdeMH5-11" source="CuxPN7iVu_fF-7CzVSLN-85" target="CuxPN7iVu_fF-7CzVSLN-89" edge="1">
          <mxGeometry relative="1" as="geometry">
            <mxPoint x="-90" y="440" as="sourcePoint" />
          </mxGeometry>
        </mxCell>
        <UserObject label="QMEssageBox" name="Tessa Miller" position="CFO" location="Office 1" email="me@example.com" placeholders="1" link="https://www.draw.io" id="CuxPN7iVu_fF-7CzVSLN-89">
          <mxCell style="label;image=https://cdn3.iconfinder.com/data/icons/user-avatars-1/512/users-3-128.png;whiteSpace=wrap;html=1;rounded=0;glass=0;treeMoving=1;treeFolding=1;" parent="dNxyNK7c78bLwvsdeMH5-11" vertex="1">
            <mxGeometry x="1330" y="350" width="180" height="80" as="geometry" />
          </mxCell>
        </UserObject>
        <mxCell id="CuxPN7iVu_fF-7CzVSLN-97" style="edgeStyle=none;curved=1;rounded=0;orthogonalLoop=1;jettySize=auto;html=1;entryX=0.5;entryY=0;entryDx=0;entryDy=0;fontSize=12;startSize=8;endSize=8;exitX=1;exitY=0.75;exitDx=0;exitDy=0;" parent="dNxyNK7c78bLwvsdeMH5-11" source="dNxyNK7c78bLwvsdeMH5-12" target="CuxPN7iVu_fF-7CzVSLN-98" edge="1">
          <mxGeometry relative="1" as="geometry">
            <mxPoint x="-580" y="265" as="sourcePoint" />
          </mxGeometry>
        </mxCell>
        <UserObject label="QFrame" name="Tessa Miller" position="CFO" location="Office 1" email="me@example.com" placeholders="1" link="https://www.draw.io" id="CuxPN7iVu_fF-7CzVSLN-98">
          <mxCell style="label;image=https://cdn3.iconfinder.com/data/icons/user-avatars-1/512/users-3-128.png;whiteSpace=wrap;html=1;rounded=0;glass=0;treeMoving=1;treeFolding=1;" parent="dNxyNK7c78bLwvsdeMH5-11" vertex="1">
            <mxGeometry x="1100" y="230" width="180" height="80" as="geometry" />
          </mxCell>
        </UserObject>
        <mxCell id="CuxPN7iVu_fF-7CzVSLN-99" style="edgeStyle=none;curved=1;rounded=0;orthogonalLoop=1;jettySize=auto;html=1;entryX=0.5;entryY=0;entryDx=0;entryDy=0;fontSize=12;startSize=8;endSize=8;exitX=0.5;exitY=1;exitDx=0;exitDy=0;" parent="dNxyNK7c78bLwvsdeMH5-11" source="CuxPN7iVu_fF-7CzVSLN-98" target="CuxPN7iVu_fF-7CzVSLN-100" edge="1">
          <mxGeometry relative="1" as="geometry">
            <mxPoint x="-580" y="245" as="sourcePoint" />
          </mxGeometry>
        </mxCell>
        <UserObject label="QLabel" name="Tessa Miller" position="CFO" location="Office 1" email="me@example.com" placeholders="1" link="https://www.draw.io" id="CuxPN7iVu_fF-7CzVSLN-100">
          <mxCell style="label;image=https://cdn3.iconfinder.com/data/icons/user-avatars-1/512/users-3-128.png;whiteSpace=wrap;html=1;rounded=0;glass=0;treeMoving=1;treeFolding=1;" parent="dNxyNK7c78bLwvsdeMH5-11" vertex="1">
            <mxGeometry x="1100" y="340" width="180" height="80" as="geometry" />
          </mxCell>
        </UserObject>
        <UserObject label="QSinglePointEvent" name="Tessa Miller" position="CFO" location="Office 1" email="me@example.com" placeholders="1" link="https://www.draw.io" id="CuxPN7iVu_fF-7CzVSLN-190">
          <mxCell style="label;image=https://cdn3.iconfinder.com/data/icons/user-avatars-1/512/users-3-128.png;whiteSpace=wrap;html=1;rounded=0;glass=0;treeMoving=1;treeFolding=1;" parent="dNxyNK7c78bLwvsdeMH5-11" vertex="1">
            <mxGeometry x="1140" y="-630" width="180" height="80" as="geometry" />
          </mxCell>
        </UserObject>
        <mxCell id="CuxPN7iVu_fF-7CzVSLN-44" style="edgeStyle=none;curved=1;rounded=0;orthogonalLoop=1;jettySize=auto;html=1;exitX=0.5;exitY=0;exitDx=0;exitDy=0;entryX=0.5;entryY=1;entryDx=0;entryDy=0;fontSize=12;startSize=8;endSize=8;" parent="1" source="CuxPN7iVu_fF-7CzVSLN-6" target="CuxPN7iVu_fF-7CzVSLN-36" edge="1">
          <mxGeometry relative="1" as="geometry">
            <Array as="points">
              <mxPoint x="830" y="20" />
            </Array>
          </mxGeometry>
        </mxCell>
        <mxCell id="CuxPN7iVu_fF-7CzVSLN-141" style="edgeStyle=none;curved=1;rounded=0;orthogonalLoop=1;jettySize=auto;html=1;exitX=1;exitY=0.5;exitDx=0;exitDy=0;entryX=0;entryY=0.5;entryDx=0;entryDy=0;fontSize=12;startSize=8;endSize=8;" parent="1" source="CuxPN7iVu_fF-7CzVSLN-6" target="CuxPN7iVu_fF-7CzVSLN-140" edge="1">
          <mxGeometry relative="1" as="geometry" />
        </mxCell>
        <mxCell id="CuxPN7iVu_fF-7CzVSLN-178" value="" style="edgeStyle=none;curved=1;rounded=0;orthogonalLoop=1;jettySize=auto;html=1;fontSize=12;startSize=8;endSize=8;exitX=0.5;exitY=1;exitDx=0;exitDy=0;" parent="1" source="CuxPN7iVu_fF-7CzVSLN-6" target="CuxPN7iVu_fF-7CzVSLN-177" edge="1">
          <mxGeometry relative="1" as="geometry" />
        </mxCell>
        <mxCell id="CuxPN7iVu_fF-7CzVSLN-184" style="edgeStyle=none;curved=1;rounded=0;orthogonalLoop=1;jettySize=auto;html=1;exitX=0;exitY=0.5;exitDx=0;exitDy=0;entryX=1;entryY=0.5;entryDx=0;entryDy=0;fontSize=12;startSize=8;endSize=8;" parent="1" source="CuxPN7iVu_fF-7CzVSLN-6" target="CuxPN7iVu_fF-7CzVSLN-68" edge="1">
          <mxGeometry relative="1" as="geometry">
            <Array as="points">
              <mxPoint x="450" y="1070" />
            </Array>
          </mxGeometry>
        </mxCell>
        <mxCell id="CuxPN7iVu_fF-7CzVSLN-194" style="edgeStyle=none;curved=1;rounded=0;orthogonalLoop=1;jettySize=auto;html=1;exitX=0.25;exitY=1;exitDx=0;exitDy=0;fontSize=12;startSize=8;endSize=8;entryX=0.5;entryY=0;entryDx=0;entryDy=0;entryPerimeter=0;" parent="1" source="CuxPN7iVu_fF-7CzVSLN-6" target="CuxPN7iVu_fF-7CzVSLN-195" edge="1">
          <mxGeometry relative="1" as="geometry">
            <mxPoint x="710" y="1879.9999999999995" as="targetPoint" />
          </mxGeometry>
        </mxCell>
        <mxCell id="CuxPN7iVu_fF-7CzVSLN-198" style="edgeStyle=none;curved=1;rounded=0;orthogonalLoop=1;jettySize=auto;html=1;exitX=0.75;exitY=1;exitDx=0;exitDy=0;fontSize=12;startSize=8;endSize=8;entryX=0.5;entryY=0;entryDx=0;entryDy=0;" parent="1" source="CuxPN7iVu_fF-7CzVSLN-6" target="CuxPN7iVu_fF-7CzVSLN-199" edge="1">
          <mxGeometry relative="1" as="geometry">
            <mxPoint x="980" y="2060" as="targetPoint" />
          </mxGeometry>
        </mxCell>
        <mxCell id="CuxPN7iVu_fF-7CzVSLN-206" style="edgeStyle=none;curved=1;rounded=0;orthogonalLoop=1;jettySize=auto;html=1;exitX=0.25;exitY=0;exitDx=0;exitDy=0;entryX=1;entryY=0.5;entryDx=0;entryDy=0;fontSize=12;startSize=8;endSize=8;" parent="1" source="CuxPN7iVu_fF-7CzVSLN-6" target="CuxPN7iVu_fF-7CzVSLN-205" edge="1">
          <mxGeometry relative="1" as="geometry">
            <Array as="points">
              <mxPoint x="670" y="-10" />
            </Array>
          </mxGeometry>
        </mxCell>
        <mxCell id="jynbhx02MGxBPUe_fnBW-1" style="edgeStyle=none;curved=1;rounded=0;orthogonalLoop=1;jettySize=auto;html=1;exitX=1;exitY=1;exitDx=0;exitDy=0;entryX=0;entryY=0;entryDx=0;entryDy=0;fontSize=12;startSize=8;endSize=8;" edge="1" parent="1" source="CuxPN7iVu_fF-7CzVSLN-6" target="CuxPN7iVu_fF-7CzVSLN-105">
          <mxGeometry relative="1" as="geometry" />
        </mxCell>
        <UserObject label="QObject" name="Tessa Miller" position="CFO" location="Office 1" email="me@example.com" placeholders="1" link="https://www.draw.io" id="CuxPN7iVu_fF-7CzVSLN-6">
          <mxCell style="label;image=https://cdn3.iconfinder.com/data/icons/user-avatars-1/512/users-3-128.png;whiteSpace=wrap;html=1;rounded=0;glass=0;treeMoving=1;treeFolding=1;" parent="1" vertex="1">
            <mxGeometry x="670" y="600" width="180" height="70" as="geometry" />
          </mxCell>
        </UserObject>
        <mxCell id="CuxPN7iVu_fF-7CzVSLN-9" style="edgeStyle=none;curved=1;rounded=0;orthogonalLoop=1;jettySize=auto;html=1;exitX=0;exitY=0.5;exitDx=0;exitDy=0;entryX=1;entryY=0.5;entryDx=0;entryDy=0;fontSize=12;startSize=8;endSize=8;" parent="1" source="CuxPN7iVu_fF-7CzVSLN-12" target="dNxyNK7c78bLwvsdeMH5-12" edge="1">
          <mxGeometry relative="1" as="geometry">
            <mxPoint x="445" y="190" as="targetPoint" />
          </mxGeometry>
        </mxCell>
        <mxCell id="CuxPN7iVu_fF-7CzVSLN-11" value="QPaintDevice Family" style="swimlane;html=1;startSize=20;horizontal=1;containerType=tree;glass=0;" parent="1" vertex="1">
          <mxGeometry x="827" y="140" width="860" height="380" as="geometry">
            <mxRectangle x="40" y="80" width="90" height="30" as="alternateBounds" />
          </mxGeometry>
        </mxCell>
        <UserObject label="QPaintDevice" name="Tessa Miller" position="CFO" location="Office 1" email="me@example.com" placeholders="1" link="https://www.draw.io" id="CuxPN7iVu_fF-7CzVSLN-12">
          <mxCell style="label;image=https://cdn3.iconfinder.com/data/icons/user-avatars-1/512/users-3-128.png;whiteSpace=wrap;html=1;rounded=0;glass=0;treeMoving=1;treeFolding=1;" parent="CuxPN7iVu_fF-7CzVSLN-11" vertex="1">
            <mxGeometry x="260" y="50" width="180" height="70" as="geometry" />
          </mxCell>
        </UserObject>
        <mxCell id="CuxPN7iVu_fF-7CzVSLN-13" value="" style="endArrow=blockThin;endFill=1;fontSize=11;edgeStyle=elbowEdgeStyle;elbow=vertical;rounded=0;" parent="CuxPN7iVu_fF-7CzVSLN-11" source="CuxPN7iVu_fF-7CzVSLN-12" target="CuxPN7iVu_fF-7CzVSLN-14" edge="1">
          <mxGeometry relative="1" as="geometry" />
        </mxCell>
        <UserObject label="QPixmap" name="Edward Morrison" position="Brand Manager" location="Office 2" email="me@example.com" placeholders="1" link="https://www.draw.io" id="CuxPN7iVu_fF-7CzVSLN-14">
          <mxCell style="label;image=https://cdn3.iconfinder.com/data/icons/user-avatars-1/512/users-10-3-128.png;whiteSpace=wrap;html=1;rounded=0;glass=0;treeFolding=1;treeMoving=1;" parent="CuxPN7iVu_fF-7CzVSLN-11" vertex="1">
            <mxGeometry x="40" y="180" width="180" height="80" as="geometry" />
          </mxCell>
        </UserObject>
        <mxCell id="CuxPN7iVu_fF-7CzVSLN-15" value="" style="endArrow=blockThin;endFill=1;fontSize=11;edgeStyle=elbowEdgeStyle;elbow=vertical;rounded=0;" parent="CuxPN7iVu_fF-7CzVSLN-11" source="CuxPN7iVu_fF-7CzVSLN-12" target="CuxPN7iVu_fF-7CzVSLN-16" edge="1">
          <mxGeometry relative="1" as="geometry" />
        </mxCell>
        <UserObject label="QLineEdit" name="Evan Valet" position="HR Director" location="Office 4" email="me@example.com" placeholders="1" link="https://www.draw.io" id="CuxPN7iVu_fF-7CzVSLN-16">
          <mxCell style="label;image=https://cdn3.iconfinder.com/data/icons/user-avatars-1/512/users-9-2-128.png;whiteSpace=wrap;html=1;rounded=0;glass=0;treeFolding=1;treeMoving=1;" parent="CuxPN7iVu_fF-7CzVSLN-11" vertex="1">
            <mxGeometry x="260" y="180" width="180" height="80" as="geometry" />
          </mxCell>
        </UserObject>
        <mxCell id="CuxPN7iVu_fF-7CzVSLN-17" value="" style="endArrow=blockThin;endFill=1;fontSize=11;edgeStyle=elbowEdgeStyle;elbow=vertical;rounded=0;" parent="CuxPN7iVu_fF-7CzVSLN-11" source="CuxPN7iVu_fF-7CzVSLN-12" target="CuxPN7iVu_fF-7CzVSLN-18" edge="1">
          <mxGeometry relative="1" as="geometry" />
        </mxCell>
        <UserObject label="Alison Donovan&lt;br&gt;&lt;i style=&quot;color: gray&quot;&gt;System Admin&lt;/i&gt;&lt;br&gt;&lt;a href=&quot;mailto:me@example.com&quot;&gt;Email&lt;/a&gt;" name="Alison Donovan" position="System Admin" location="Office 3" email="me@example.com" placeholders="1" link="https://www.draw.io" id="CuxPN7iVu_fF-7CzVSLN-18">
          <mxCell style="label;image=https://cdn3.iconfinder.com/data/icons/user-avatars-1/512/users-2-128.png;whiteSpace=wrap;html=1;rounded=0;glass=0;" parent="CuxPN7iVu_fF-7CzVSLN-11" vertex="1">
            <mxGeometry x="490" y="180" width="180" height="80" as="geometry" />
          </mxCell>
        </UserObject>
        <mxCell id="CuxPN7iVu_fF-7CzVSLN-19" value="" style="endArrow=blockThin;endFill=1;fontSize=11;edgeStyle=elbowEdgeStyle;elbow=vertical;rounded=0;" parent="CuxPN7iVu_fF-7CzVSLN-11" source="CuxPN7iVu_fF-7CzVSLN-14" target="CuxPN7iVu_fF-7CzVSLN-20" edge="1">
          <mxGeometry relative="1" as="geometry">
            <mxPoint x="250" y="260" as="sourcePoint" />
          </mxGeometry>
        </mxCell>
        <UserObject label="QPushButton" name="Edward Morrison" position="Brand Manager" location="Office 2" email="me@example.com" placeholders="1" link="https://www.draw.io" id="CuxPN7iVu_fF-7CzVSLN-20">
          <mxCell style="label;image=https://cdn3.iconfinder.com/data/icons/user-avatars-1/512/users-10-3-128.png;whiteSpace=wrap;html=1;rounded=0;glass=0;treeFolding=1;treeMoving=1;" parent="CuxPN7iVu_fF-7CzVSLN-11" vertex="1">
            <mxGeometry x="40" y="300" width="180" height="80" as="geometry" />
          </mxCell>
        </UserObject>
        <UserObject label="QAction" name="Tessa Miller" position="CFO" location="Office 1" email="me@example.com" placeholders="1" link="https://www.draw.io" id="CuxPN7iVu_fF-7CzVSLN-36">
          <mxCell style="label;image=https://cdn3.iconfinder.com/data/icons/user-avatars-1/512/users-3-128.png;whiteSpace=wrap;html=1;rounded=0;glass=0;treeMoving=1;treeFolding=1;" parent="1" vertex="1">
            <mxGeometry x="160" y="-310" width="180" height="80" as="geometry" />
          </mxCell>
        </UserObject>
        <mxCell id="CuxPN7iVu_fF-7CzVSLN-45" value="Connect" style="swimlane;html=1;startSize=20;horizontal=1;containerType=tree;glass=0;rounded=0;shadow=0;fillColor=#647687;fillStyle=auto;strokeColor=#314354;fontColor=#ffffff;strokeWidth=18;perimeterSpacing=1;gradientColor=none;" parent="1" vertex="1">
          <mxGeometry x="-900" y="720" width="1530" height="830" as="geometry">
            <mxRectangle x="40" y="80" width="90" height="30" as="alternateBounds" />
          </mxGeometry>
        </mxCell>
        <UserObject label="MainWindow" name="Tessa Miller" position="CFO" location="Office 1" email="me@example.com" placeholders="1" link="https://www.draw.io" id="CuxPN7iVu_fF-7CzVSLN-59">
          <mxCell style="label;image=https://cdn3.iconfinder.com/data/icons/user-avatars-1/512/users-3-128.png;whiteSpace=wrap;html=1;rounded=0;glass=0;treeMoving=1;treeFolding=1;" parent="CuxPN7iVu_fF-7CzVSLN-45" vertex="1">
            <mxGeometry x="140" y="180" width="180" height="80" as="geometry" />
          </mxCell>
        </UserObject>
        <UserObject label="Menu" name="Tessa Miller" position="CFO" location="Office 1" email="me@example.com" placeholders="1" link="https://www.draw.io" id="CuxPN7iVu_fF-7CzVSLN-61">
          <mxCell style="label;image=https://cdn3.iconfinder.com/data/icons/user-avatars-1/512/users-3-128.png;whiteSpace=wrap;html=1;rounded=0;glass=0;treeMoving=1;treeFolding=1;" parent="CuxPN7iVu_fF-7CzVSLN-45" vertex="1">
            <mxGeometry x="670" y="70" width="180" height="80" as="geometry" />
          </mxCell>
        </UserObject>
        <mxCell id="CuxPN7iVu_fF-7CzVSLN-62" style="edgeStyle=none;curved=1;rounded=0;orthogonalLoop=1;jettySize=auto;html=1;fontSize=12;startSize=8;endSize=8;entryX=0.5;entryY=1;entryDx=0;entryDy=0;exitX=0.5;exitY=0;exitDx=0;exitDy=0;" parent="CuxPN7iVu_fF-7CzVSLN-45" source="CuxPN7iVu_fF-7CzVSLN-68" target="CuxPN7iVu_fF-7CzVSLN-63" edge="1">
          <mxGeometry relative="1" as="geometry">
            <mxPoint x="-670" y="890" as="targetPoint" />
            <mxPoint x="620" y="70" as="sourcePoint" />
          </mxGeometry>
        </mxCell>
        <UserObject label="Leaderboard" name="Tessa Miller" position="CFO" location="Office 1" email="me@example.com" placeholders="1" link="https://www.draw.io" id="CuxPN7iVu_fF-7CzVSLN-63">
          <mxCell style="label;image=https://cdn3.iconfinder.com/data/icons/user-avatars-1/512/users-3-128.png;whiteSpace=wrap;html=1;rounded=0;glass=0;treeMoving=1;treeFolding=1;" parent="CuxPN7iVu_fF-7CzVSLN-45" vertex="1">
            <mxGeometry x="880" y="70" width="180" height="80" as="geometry" />
          </mxCell>
        </UserObject>
        <mxCell id="CuxPN7iVu_fF-7CzVSLN-64" style="edgeStyle=none;curved=1;rounded=0;orthogonalLoop=1;jettySize=auto;html=1;fontSize=12;startSize=8;endSize=8;entryX=0.5;entryY=1;entryDx=0;entryDy=0;exitX=0.25;exitY=1;exitDx=0;exitDy=0;" parent="CuxPN7iVu_fF-7CzVSLN-45" source="CuxPN7iVu_fF-7CzVSLN-68" target="CuxPN7iVu_fF-7CzVSLN-65" edge="1">
          <mxGeometry relative="1" as="geometry">
            <mxPoint x="-1830" y="1640" as="targetPoint" />
            <mxPoint x="790" y="100" as="sourcePoint" />
          </mxGeometry>
        </mxCell>
        <UserObject label="Game" name="Tessa Miller" position="CFO" location="Office 1" email="me@example.com" placeholders="1" link="https://www.draw.io" id="CuxPN7iVu_fF-7CzVSLN-65">
          <mxCell style="label;image=https://cdn3.iconfinder.com/data/icons/user-avatars-1/512/users-3-128.png;whiteSpace=wrap;html=1;rounded=0;glass=0;treeMoving=1;treeFolding=1;" parent="CuxPN7iVu_fF-7CzVSLN-45" vertex="1">
            <mxGeometry x="440" y="70" width="180" height="80" as="geometry" />
          </mxCell>
        </UserObject>
        <UserObject label="QWidget" name="Tessa Miller" position="CFO" location="Office 1" email="me@example.com" placeholders="1" link="https://www.draw.io" id="CuxPN7iVu_fF-7CzVSLN-68">
          <mxCell style="label;image=https://cdn3.iconfinder.com/data/icons/user-avatars-1/512/users-3-128.png;whiteSpace=wrap;html=1;rounded=0;glass=0;treeMoving=1;treeFolding=1;" parent="CuxPN7iVu_fF-7CzVSLN-45" vertex="1">
            <mxGeometry x="640" y="420" width="180" height="80" as="geometry" />
          </mxCell>
        </UserObject>
        <mxCell id="CuxPN7iVu_fF-7CzVSLN-60" style="edgeStyle=none;curved=1;rounded=0;orthogonalLoop=1;jettySize=auto;html=1;fontSize=12;startSize=8;endSize=8;entryX=0.5;entryY=1;entryDx=0;entryDy=0;exitX=0.25;exitY=0;exitDx=0;exitDy=0;" parent="CuxPN7iVu_fF-7CzVSLN-45" source="CuxPN7iVu_fF-7CzVSLN-68" target="CuxPN7iVu_fF-7CzVSLN-61" edge="1">
          <mxGeometry relative="1" as="geometry">
            <mxPoint x="230" y="170" as="targetPoint" />
            <mxPoint x="260" y="100" as="sourcePoint" />
          </mxGeometry>
        </mxCell>
        <mxCell id="CuxPN7iVu_fF-7CzVSLN-72" style="edgeStyle=none;curved=1;rounded=0;orthogonalLoop=1;jettySize=auto;html=1;fontSize=12;startSize=8;endSize=8;entryX=0;entryY=1;entryDx=0;entryDy=0;exitX=0.75;exitY=0;exitDx=0;exitDy=0;" parent="CuxPN7iVu_fF-7CzVSLN-45" source="CuxPN7iVu_fF-7CzVSLN-68" target="CuxPN7iVu_fF-7CzVSLN-73" edge="1">
          <mxGeometry relative="1" as="geometry">
            <mxPoint x="-1570" y="1610" as="targetPoint" />
            <mxPoint x="-115" y="870" as="sourcePoint" />
          </mxGeometry>
        </mxCell>
        <UserObject label="About" name="Tessa Miller" position="CFO" location="Office 1" email="me@example.com" placeholders="1" link="https://www.draw.io" id="CuxPN7iVu_fF-7CzVSLN-73">
          <mxCell style="label;image=https://cdn3.iconfinder.com/data/icons/user-avatars-1/512/users-3-128.png;whiteSpace=wrap;html=1;rounded=0;glass=0;treeMoving=1;treeFolding=1;" parent="CuxPN7iVu_fF-7CzVSLN-45" vertex="1">
            <mxGeometry x="1020" y="210" width="180" height="80" as="geometry" />
          </mxCell>
        </UserObject>
        <UserObject label="AddRecordDialog" name="Tessa Miller" position="CFO" location="Office 1" email="me@example.com" placeholders="1" link="https://www.draw.io" id="CuxPN7iVu_fF-7CzVSLN-91">
          <mxCell style="label;image=https://cdn3.iconfinder.com/data/icons/user-avatars-1/512/users-3-128.png;whiteSpace=wrap;html=1;rounded=0;glass=0;treeMoving=1;treeFolding=1;" parent="CuxPN7iVu_fF-7CzVSLN-45" vertex="1">
            <mxGeometry x="1314" y="410" width="180" height="80" as="geometry" />
          </mxCell>
        </UserObject>
        <UserObject label="BlockButton" name="Edward Morrison" position="Brand Manager" location="Office 2" email="me@example.com" placeholders="1" link="https://www.draw.io" id="CuxPN7iVu_fF-7CzVSLN-94">
          <mxCell style="label;image=https://cdn3.iconfinder.com/data/icons/user-avatars-1/512/users-10-3-128.png;whiteSpace=wrap;html=1;rounded=0;glass=0;treeFolding=1;treeMoving=1;" parent="CuxPN7iVu_fF-7CzVSLN-45" vertex="1">
            <mxGeometry x="50" y="320" width="180" height="80" as="geometry" />
          </mxCell>
        </UserObject>
        <UserObject label="Point" name="Edward Morrison" position="Brand Manager" location="Office 2" email="me@example.com" placeholders="1" link="https://www.draw.io" id="CuxPN7iVu_fF-7CzVSLN-101">
          <mxCell style="label;image=https://cdn3.iconfinder.com/data/icons/user-avatars-1/512/users-10-3-128.png;whiteSpace=wrap;html=1;rounded=0;glass=0;treeFolding=1;treeMoving=1;" parent="CuxPN7iVu_fF-7CzVSLN-45" vertex="1">
            <mxGeometry x="50" y="660" width="180" height="80" as="geometry" />
          </mxCell>
        </UserObject>
        <UserObject label="Record" name="Edward Morrison" position="Brand Manager" location="Office 2" email="me@example.com" placeholders="1" link="https://www.draw.io" id="CuxPN7iVu_fF-7CzVSLN-102">
          <mxCell style="label;image=https://cdn3.iconfinder.com/data/icons/user-avatars-1/512/users-10-3-128.png;whiteSpace=wrap;html=1;rounded=0;glass=0;treeFolding=1;treeMoving=1;" parent="CuxPN7iVu_fF-7CzVSLN-45" vertex="1">
            <mxGeometry x="50" y="510" width="180" height="80" as="geometry" />
          </mxCell>
        </UserObject>
        <UserObject label="Records" name="Edward Morrison" position="Brand Manager" location="Office 2" email="me@example.com" placeholders="1" link="https://www.draw.io" id="CuxPN7iVu_fF-7CzVSLN-122">
          <mxCell style="label;image=https://cdn3.iconfinder.com/data/icons/user-avatars-1/512/users-10-3-128.png;whiteSpace=wrap;html=1;rounded=0;glass=0;treeFolding=1;treeMoving=1;" parent="CuxPN7iVu_fF-7CzVSLN-45" vertex="1">
            <mxGeometry x="270" y="510" width="180" height="80" as="geometry" />
          </mxCell>
        </UserObject>
        <UserObject label="Blocks" name="Edward Morrison" position="Brand Manager" location="Office 2" email="me@example.com" placeholders="1" link="https://www.draw.io" id="CuxPN7iVu_fF-7CzVSLN-123">
          <mxCell style="label;image=https://cdn3.iconfinder.com/data/icons/user-avatars-1/512/users-10-3-128.png;whiteSpace=wrap;html=1;rounded=0;glass=0;treeFolding=1;treeMoving=1;" parent="CuxPN7iVu_fF-7CzVSLN-45" vertex="1">
            <mxGeometry x="270" y="660" width="180" height="80" as="geometry" />
          </mxCell>
        </UserObject>
        <UserObject label="StatusWidget" name="Tessa Miller" position="CFO" location="Office 1" email="me@example.com" placeholders="1" link="https://www.draw.io" id="CuxPN7iVu_fF-7CzVSLN-75">
          <mxCell style="label;image=https://cdn3.iconfinder.com/data/icons/user-avatars-1/512/users-3-128.png;whiteSpace=wrap;html=1;rounded=0;glass=0;treeMoving=1;treeFolding=1;" parent="CuxPN7iVu_fF-7CzVSLN-45" vertex="1">
            <mxGeometry x="480" y="640" width="180" height="80" as="geometry" />
          </mxCell>
        </UserObject>
        <mxCell id="CuxPN7iVu_fF-7CzVSLN-74" style="edgeStyle=none;curved=1;rounded=0;orthogonalLoop=1;jettySize=auto;html=1;fontSize=12;startSize=8;endSize=8;entryX=0.5;entryY=0;entryDx=0;entryDy=0;exitX=0.25;exitY=1;exitDx=0;exitDy=0;" parent="CuxPN7iVu_fF-7CzVSLN-45" source="CuxPN7iVu_fF-7CzVSLN-68" target="CuxPN7iVu_fF-7CzVSLN-75" edge="1">
          <mxGeometry relative="1" as="geometry">
            <mxPoint x="-2470" y="2330" as="targetPoint" />
            <mxPoint x="-70" y="830" as="sourcePoint" />
          </mxGeometry>
        </mxCell>
        <UserObject label="PastGameWidget" name="Tessa Miller" position="CFO" location="Office 1" email="me@example.com" placeholders="1" link="https://www.draw.io" id="CuxPN7iVu_fF-7CzVSLN-83">
          <mxCell style="label;image=https://cdn3.iconfinder.com/data/icons/user-avatars-1/512/users-3-128.png;whiteSpace=wrap;html=1;rounded=0;glass=0;treeMoving=1;treeFolding=1;" parent="CuxPN7iVu_fF-7CzVSLN-45" vertex="1">
            <mxGeometry x="920" y="640" width="180" height="80" as="geometry" />
          </mxCell>
        </UserObject>
        <mxCell id="CuxPN7iVu_fF-7CzVSLN-82" style="edgeStyle=none;curved=1;rounded=0;orthogonalLoop=1;jettySize=auto;html=1;fontSize=12;startSize=8;endSize=8;entryX=0.5;entryY=0;entryDx=0;entryDy=0;exitX=0.75;exitY=1;exitDx=0;exitDy=0;" parent="CuxPN7iVu_fF-7CzVSLN-45" source="CuxPN7iVu_fF-7CzVSLN-68" target="CuxPN7iVu_fF-7CzVSLN-83" edge="1">
          <mxGeometry relative="1" as="geometry">
            <mxPoint x="-4270" y="3770" as="targetPoint" />
            <mxPoint x="-70" y="850" as="sourcePoint" />
          </mxGeometry>
        </mxCell>
        <UserObject label="RecordSerializer" name="Edward Morrison" position="Brand Manager" location="Office 2" email="me@example.com" placeholders="1" link="https://www.draw.io" id="CuxPN7iVu_fF-7CzVSLN-161">
          <mxCell style="label;image=https://cdn3.iconfinder.com/data/icons/user-avatars-1/512/users-10-3-128.png;whiteSpace=wrap;html=1;rounded=0;glass=0;treeFolding=1;treeMoving=1;" parent="CuxPN7iVu_fF-7CzVSLN-45" vertex="1">
            <mxGeometry x="1290" y="640" width="180" height="80" as="geometry" />
          </mxCell>
        </UserObject>
        <mxCell id="CuxPN7iVu_fF-7CzVSLN-58" style="edgeStyle=none;curved=1;rounded=0;orthogonalLoop=1;jettySize=auto;html=1;exitX=0.5;exitY=1;exitDx=0;exitDy=0;entryX=0.5;entryY=0;entryDx=0;entryDy=0;fontSize=12;startSize=8;endSize=8;" parent="1" source="CuxPN7iVu_fF-7CzVSLN-29" target="CuxPN7iVu_fF-7CzVSLN-59" edge="1">
          <mxGeometry relative="1" as="geometry">
            <mxPoint x="-990" y="80" as="sourcePoint" />
          </mxGeometry>
        </mxCell>
        <mxCell id="CuxPN7iVu_fF-7CzVSLN-71" value="" style="endArrow=classic;startArrow=classic;html=1;rounded=0;fontSize=12;startSize=8;endSize=8;curved=1;exitX=0;exitY=0.5;exitDx=0;exitDy=0;entryX=0.5;entryY=1;entryDx=0;entryDy=0;" parent="1" source="CuxPN7iVu_fF-7CzVSLN-68" target="dNxyNK7c78bLwvsdeMH5-12" edge="1">
          <mxGeometry width="50" height="50" relative="1" as="geometry">
            <mxPoint x="-640" y="730" as="sourcePoint" />
            <mxPoint x="-590" y="680" as="targetPoint" />
            <Array as="points">
              <mxPoint x="-640" y="850" />
              <mxPoint x="-580" y="700" />
              <mxPoint x="-550" y="460" />
              <mxPoint x="-600" y="265" />
            </Array>
          </mxGeometry>
        </mxCell>
        <mxCell id="CuxPN7iVu_fF-7CzVSLN-90" style="edgeStyle=none;curved=1;rounded=0;orthogonalLoop=1;jettySize=auto;html=1;entryX=0.5;entryY=0;entryDx=0;entryDy=0;fontSize=12;startSize=8;endSize=8;exitX=1;exitY=0.5;exitDx=0;exitDy=0;" parent="1" source="CuxPN7iVu_fF-7CzVSLN-85" target="CuxPN7iVu_fF-7CzVSLN-91" edge="1">
          <mxGeometry relative="1" as="geometry">
            <mxPoint x="-1820" y="395" as="sourcePoint" />
            <Array as="points">
              <mxPoint x="610" y="300" />
            </Array>
          </mxGeometry>
        </mxCell>
        <mxCell id="CuxPN7iVu_fF-7CzVSLN-96" value="" style="endArrow=classic;html=1;rounded=0;fontSize=12;startSize=8;endSize=8;curved=1;exitX=0.5;exitY=1;exitDx=0;exitDy=0;entryX=0.5;entryY=0;entryDx=0;entryDy=0;" parent="1" source="CuxPN7iVu_fF-7CzVSLN-2" target="CuxPN7iVu_fF-7CzVSLN-94" edge="1">
          <mxGeometry width="50" height="50" relative="1" as="geometry">
            <mxPoint x="-940" y="880" as="sourcePoint" />
            <mxPoint x="-890" y="830" as="targetPoint" />
          </mxGeometry>
        </mxCell>
        <UserObject label="BlocksWidget" name="Tessa Miller" position="CFO" location="Office 1" email="me@example.com" placeholders="1" link="https://www.draw.io" id="CuxPN7iVu_fF-7CzVSLN-81">
          <mxCell style="label;image=https://cdn3.iconfinder.com/data/icons/user-avatars-1/512/users-3-128.png;whiteSpace=wrap;html=1;rounded=0;glass=0;treeMoving=1;treeFolding=1;" parent="1" vertex="1">
            <mxGeometry x="-200" y="1360" width="180" height="80" as="geometry" />
          </mxCell>
        </UserObject>
        <mxCell id="CuxPN7iVu_fF-7CzVSLN-80" style="edgeStyle=none;curved=1;rounded=0;orthogonalLoop=1;jettySize=auto;html=1;fontSize=12;startSize=8;endSize=8;entryX=0.5;entryY=0;entryDx=0;entryDy=0;exitX=0.5;exitY=1;exitDx=0;exitDy=0;" parent="1" source="CuxPN7iVu_fF-7CzVSLN-68" target="CuxPN7iVu_fF-7CzVSLN-81" edge="1">
          <mxGeometry relative="1" as="geometry">
            <mxPoint x="-4270" y="3770" as="targetPoint" />
            <mxPoint x="-970" y="1570" as="sourcePoint" />
          </mxGeometry>
        </mxCell>
        <mxCell id="CuxPN7iVu_fF-7CzVSLN-104" value="QLayoutItem Family" style="swimlane;html=1;startSize=20;horizontal=1;containerType=tree;glass=0;" parent="1" vertex="1">
          <mxGeometry x="940" y="720" width="860" height="570" as="geometry">
            <mxRectangle x="40" y="80" width="90" height="30" as="alternateBounds" />
          </mxGeometry>
        </mxCell>
        <UserObject label="QLayoutItem" name="Tessa Miller" position="CFO" location="Office 1" email="me@example.com" placeholders="1" link="https://www.draw.io" id="CuxPN7iVu_fF-7CzVSLN-105">
          <mxCell style="label;image=https://cdn3.iconfinder.com/data/icons/user-avatars-1/512/users-3-128.png;whiteSpace=wrap;html=1;rounded=0;glass=0;treeMoving=1;treeFolding=1;" parent="CuxPN7iVu_fF-7CzVSLN-104" vertex="1">
            <mxGeometry x="260" y="50" width="180" height="70" as="geometry" />
          </mxCell>
        </UserObject>
        <mxCell id="CuxPN7iVu_fF-7CzVSLN-106" value="" style="endArrow=blockThin;endFill=1;fontSize=11;edgeStyle=elbowEdgeStyle;elbow=vertical;rounded=0;" parent="CuxPN7iVu_fF-7CzVSLN-104" source="CuxPN7iVu_fF-7CzVSLN-105" target="CuxPN7iVu_fF-7CzVSLN-107" edge="1">
          <mxGeometry relative="1" as="geometry" />
        </mxCell>
        <UserObject label="QLayout" name="Edward Morrison" position="Brand Manager" location="Office 2" email="me@example.com" placeholders="1" link="https://www.draw.io" id="CuxPN7iVu_fF-7CzVSLN-107">
          <mxCell style="label;image=https://cdn3.iconfinder.com/data/icons/user-avatars-1/512/users-10-3-128.png;whiteSpace=wrap;html=1;rounded=0;glass=0;treeFolding=1;treeMoving=1;" parent="CuxPN7iVu_fF-7CzVSLN-104" vertex="1">
            <mxGeometry x="40" y="180" width="180" height="80" as="geometry" />
          </mxCell>
        </UserObject>
        <mxCell id="CuxPN7iVu_fF-7CzVSLN-108" value="" style="endArrow=blockThin;endFill=1;fontSize=11;edgeStyle=elbowEdgeStyle;elbow=vertical;rounded=0;" parent="CuxPN7iVu_fF-7CzVSLN-104" source="CuxPN7iVu_fF-7CzVSLN-105" target="CuxPN7iVu_fF-7CzVSLN-109" edge="1">
          <mxGeometry relative="1" as="geometry" />
        </mxCell>
        <UserObject label="QSpacerItem" name="Evan Valet" position="HR Director" location="Office 4" email="me@example.com" placeholders="1" link="https://www.draw.io" id="CuxPN7iVu_fF-7CzVSLN-109">
          <mxCell style="label;image=https://cdn3.iconfinder.com/data/icons/user-avatars-1/512/users-9-2-128.png;whiteSpace=wrap;html=1;rounded=0;glass=0;treeFolding=1;treeMoving=1;" parent="CuxPN7iVu_fF-7CzVSLN-104" vertex="1">
            <mxGeometry x="260" y="180" width="180" height="80" as="geometry" />
          </mxCell>
        </UserObject>
        <mxCell id="CuxPN7iVu_fF-7CzVSLN-110" value="" style="endArrow=blockThin;endFill=1;fontSize=11;edgeStyle=elbowEdgeStyle;elbow=vertical;rounded=0;" parent="CuxPN7iVu_fF-7CzVSLN-104" source="CuxPN7iVu_fF-7CzVSLN-105" target="CuxPN7iVu_fF-7CzVSLN-111" edge="1">
          <mxGeometry relative="1" as="geometry" />
        </mxCell>
        <UserObject label="QWidgetItem" name="Alison Donovan" position="System Admin" location="Office 3" email="me@example.com" placeholders="1" link="https://www.draw.io" id="CuxPN7iVu_fF-7CzVSLN-111">
          <mxCell style="label;image=https://cdn3.iconfinder.com/data/icons/user-avatars-1/512/users-2-128.png;whiteSpace=wrap;html=1;rounded=0;glass=0;" parent="CuxPN7iVu_fF-7CzVSLN-104" vertex="1">
            <mxGeometry x="490" y="180" width="180" height="80" as="geometry" />
          </mxCell>
        </UserObject>
        <mxCell id="CuxPN7iVu_fF-7CzVSLN-112" value="" style="endArrow=blockThin;endFill=1;fontSize=11;edgeStyle=elbowEdgeStyle;elbow=vertical;rounded=0;" parent="CuxPN7iVu_fF-7CzVSLN-104" source="CuxPN7iVu_fF-7CzVSLN-107" target="CuxPN7iVu_fF-7CzVSLN-113" edge="1">
          <mxGeometry relative="1" as="geometry">
            <mxPoint x="250" y="260" as="sourcePoint" />
          </mxGeometry>
        </mxCell>
        <UserObject label="QBoxLayout" name="Edward Morrison" position="Brand Manager" location="Office 2" email="me@example.com" placeholders="1" link="https://www.draw.io" id="CuxPN7iVu_fF-7CzVSLN-113">
          <mxCell style="label;image=https://cdn3.iconfinder.com/data/icons/user-avatars-1/512/users-10-3-128.png;whiteSpace=wrap;html=1;rounded=0;glass=0;treeFolding=1;treeMoving=1;" parent="CuxPN7iVu_fF-7CzVSLN-104" vertex="1">
            <mxGeometry x="40" y="300" width="180" height="80" as="geometry" />
          </mxCell>
        </UserObject>
        <mxCell id="CuxPN7iVu_fF-7CzVSLN-114" value="" style="endArrow=blockThin;endFill=1;fontSize=11;edgeStyle=elbowEdgeStyle;elbow=vertical;rounded=0;" parent="CuxPN7iVu_fF-7CzVSLN-104" source="CuxPN7iVu_fF-7CzVSLN-113" target="CuxPN7iVu_fF-7CzVSLN-115" edge="1">
          <mxGeometry relative="1" as="geometry">
            <mxPoint x="1040" y="990" as="sourcePoint" />
          </mxGeometry>
        </mxCell>
        <UserObject label="QVBoxLayout" name="Edward Morrison" position="Brand Manager" location="Office 2" email="me@example.com" placeholders="1" link="https://www.draw.io" id="CuxPN7iVu_fF-7CzVSLN-115">
          <mxCell style="label;image=https://cdn3.iconfinder.com/data/icons/user-avatars-1/512/users-10-3-128.png;whiteSpace=wrap;html=1;rounded=0;glass=0;treeFolding=1;treeMoving=1;" parent="CuxPN7iVu_fF-7CzVSLN-104" vertex="1">
            <mxGeometry x="40" y="420" width="180" height="80" as="geometry" />
          </mxCell>
        </UserObject>
        <mxCell id="CuxPN7iVu_fF-7CzVSLN-116" value="" style="endArrow=blockThin;endFill=1;fontSize=11;edgeStyle=elbowEdgeStyle;elbow=vertical;rounded=0;" parent="CuxPN7iVu_fF-7CzVSLN-104" source="CuxPN7iVu_fF-7CzVSLN-107" target="CuxPN7iVu_fF-7CzVSLN-117" edge="1">
          <mxGeometry relative="1" as="geometry">
            <mxPoint x="1040" y="990" as="sourcePoint" />
          </mxGeometry>
        </mxCell>
        <UserObject label="QGridLayout" name="Edward Morrison" position="Brand Manager" location="Office 2" email="me@example.com" placeholders="1" link="https://www.draw.io" id="CuxPN7iVu_fF-7CzVSLN-117">
          <mxCell style="label;image=https://cdn3.iconfinder.com/data/icons/user-avatars-1/512/users-10-3-128.png;whiteSpace=wrap;html=1;rounded=0;glass=0;treeFolding=1;treeMoving=1;" parent="CuxPN7iVu_fF-7CzVSLN-104" vertex="1">
            <mxGeometry x="260" y="300" width="180" height="80" as="geometry" />
          </mxCell>
        </UserObject>
        <mxCell id="CuxPN7iVu_fF-7CzVSLN-120" value="" style="endArrow=blockThin;endFill=1;fontSize=11;edgeStyle=elbowEdgeStyle;elbow=vertical;rounded=0;" parent="CuxPN7iVu_fF-7CzVSLN-104" source="CuxPN7iVu_fF-7CzVSLN-113" target="CuxPN7iVu_fF-7CzVSLN-121" edge="1">
          <mxGeometry relative="1" as="geometry">
            <mxPoint x="1040" y="1110" as="sourcePoint" />
          </mxGeometry>
        </mxCell>
        <UserObject label="QHBoxLayout" name="Edward Morrison" position="Brand Manager" location="Office 2" email="me@example.com" placeholders="1" link="https://www.draw.io" id="CuxPN7iVu_fF-7CzVSLN-121">
          <mxCell style="label;image=https://cdn3.iconfinder.com/data/icons/user-avatars-1/512/users-10-3-128.png;whiteSpace=wrap;html=1;rounded=0;glass=0;treeFolding=1;treeMoving=1;" parent="CuxPN7iVu_fF-7CzVSLN-104" vertex="1">
            <mxGeometry x="230" y="420" width="180" height="80" as="geometry" />
          </mxCell>
        </UserObject>
        <mxCell id="CuxPN7iVu_fF-7CzVSLN-124" value="QJsonSupport Family" style="swimlane;html=1;startSize=20;horizontal=1;containerType=tree;glass=0;" parent="1" vertex="1">
          <mxGeometry x="770" y="-370" width="860" height="380" as="geometry">
            <mxRectangle x="40" y="80" width="90" height="30" as="alternateBounds" />
          </mxGeometry>
        </mxCell>
        <UserObject label="QJsonDocument" name="Tessa Miller" position="CFO" location="Office 1" email="me@example.com" placeholders="1" link="https://www.draw.io" id="CuxPN7iVu_fF-7CzVSLN-125">
          <mxCell style="label;image=https://cdn3.iconfinder.com/data/icons/user-avatars-1/512/users-3-128.png;whiteSpace=wrap;html=1;rounded=0;glass=0;treeMoving=1;treeFolding=1;" parent="CuxPN7iVu_fF-7CzVSLN-124" vertex="1">
            <mxGeometry x="100" y="130" width="180" height="70" as="geometry" />
          </mxCell>
        </UserObject>
        <UserObject label="QJsonObject" name="Tessa Miller" position="CFO" location="Office 1" email="me@example.com" placeholders="1" link="https://www.draw.io" id="CuxPN7iVu_fF-7CzVSLN-134">
          <mxCell style="label;image=https://cdn3.iconfinder.com/data/icons/user-avatars-1/512/users-3-128.png;whiteSpace=wrap;html=1;rounded=0;glass=0;treeMoving=1;treeFolding=1;" parent="CuxPN7iVu_fF-7CzVSLN-124" vertex="1">
            <mxGeometry x="327" y="130" width="180" height="70" as="geometry" />
          </mxCell>
        </UserObject>
        <UserObject label="QJsonArray" name="Tessa Miller" position="CFO" location="Office 1" email="me@example.com" placeholders="1" link="https://www.draw.io" id="CuxPN7iVu_fF-7CzVSLN-135">
          <mxCell style="label;image=https://cdn3.iconfinder.com/data/icons/user-avatars-1/512/users-3-128.png;whiteSpace=wrap;html=1;rounded=0;glass=0;treeMoving=1;treeFolding=1;" parent="CuxPN7iVu_fF-7CzVSLN-124" vertex="1">
            <mxGeometry x="560" y="130" width="180" height="70" as="geometry" />
          </mxCell>
        </UserObject>
        <UserObject label="QJsonParseError" name="Tessa Miller" position="CFO" location="Office 1" email="me@example.com" placeholders="1" link="https://www.draw.io" id="CuxPN7iVu_fF-7CzVSLN-136">
          <mxCell style="label;image=https://cdn3.iconfinder.com/data/icons/user-avatars-1/512/users-3-128.png;whiteSpace=wrap;html=1;rounded=0;glass=0;treeMoving=1;treeFolding=1;" parent="CuxPN7iVu_fF-7CzVSLN-124" vertex="1">
            <mxGeometry x="560" y="260" width="180" height="70" as="geometry" />
          </mxCell>
        </UserObject>
        <UserObject label="QJsonValue" name="Tessa Miller" position="CFO" location="Office 1" email="me@example.com" placeholders="1" link="https://www.draw.io" id="CuxPN7iVu_fF-7CzVSLN-137">
          <mxCell style="label;image=https://cdn3.iconfinder.com/data/icons/user-avatars-1/512/users-3-128.png;whiteSpace=wrap;html=1;rounded=0;glass=0;treeMoving=1;treeFolding=1;" parent="CuxPN7iVu_fF-7CzVSLN-124" vertex="1">
            <mxGeometry x="327" y="260" width="180" height="70" as="geometry" />
          </mxCell>
        </UserObject>
        <mxCell id="CuxPN7iVu_fF-7CzVSLN-143" style="edgeStyle=none;curved=1;rounded=0;orthogonalLoop=1;jettySize=auto;html=1;exitX=0.5;exitY=1;exitDx=0;exitDy=0;entryX=0.5;entryY=0;entryDx=0;entryDy=0;fontSize=12;startSize=8;endSize=8;" parent="1" source="CuxPN7iVu_fF-7CzVSLN-142" target="CuxPN7iVu_fF-7CzVSLN-140" edge="1">
          <mxGeometry relative="1" as="geometry" />
        </mxCell>
        <UserObject label="QIODeviceBase" name="Tessa Miller" position="CFO" location="Office 1" email="me@example.com" placeholders="1" link="https://www.draw.io" id="CuxPN7iVu_fF-7CzVSLN-142">
          <mxCell style="label;image=https://cdn3.iconfinder.com/data/icons/user-avatars-1/512/users-3-128.png;whiteSpace=wrap;html=1;rounded=0;glass=0;treeMoving=1;treeFolding=1;" parent="1" vertex="1">
            <mxGeometry x="2200" y="370" width="180" height="70" as="geometry" />
          </mxCell>
        </UserObject>
        <mxCell id="CuxPN7iVu_fF-7CzVSLN-144" value="QIODevice Family" style="swimlane;html=1;startSize=20;horizontal=1;containerType=tree;glass=0;" parent="1" vertex="1">
          <mxGeometry x="1880" y="540" width="860" height="380" as="geometry">
            <mxRectangle x="40" y="80" width="90" height="30" as="alternateBounds" />
          </mxGeometry>
        </mxCell>
        <mxCell id="CuxPN7iVu_fF-7CzVSLN-158" style="edgeStyle=none;curved=1;rounded=0;orthogonalLoop=1;jettySize=auto;html=1;exitX=0.25;exitY=1;exitDx=0;exitDy=0;entryX=0.5;entryY=0;entryDx=0;entryDy=0;fontSize=12;startSize=8;endSize=8;" parent="CuxPN7iVu_fF-7CzVSLN-144" source="CuxPN7iVu_fF-7CzVSLN-140" target="CuxPN7iVu_fF-7CzVSLN-157" edge="1">
          <mxGeometry relative="1" as="geometry" />
        </mxCell>
        <UserObject label="QIODevice" name="Tessa Miller" position="CFO" location="Office 1" email="me@example.com" placeholders="1" link="https://www.draw.io" id="CuxPN7iVu_fF-7CzVSLN-140">
          <mxCell style="label;image=https://cdn3.iconfinder.com/data/icons/user-avatars-1/512/users-3-128.png;whiteSpace=wrap;html=1;rounded=0;glass=0;treeMoving=1;treeFolding=1;" parent="CuxPN7iVu_fF-7CzVSLN-144" vertex="1">
            <mxGeometry x="320" y="60" width="180" height="70" as="geometry" />
          </mxCell>
        </UserObject>
        <UserObject label="QFile" name="Tessa Miller" position="CFO" location="Office 1" email="me@example.com" placeholders="1" link="https://www.draw.io" id="CuxPN7iVu_fF-7CzVSLN-157">
          <mxCell style="label;image=https://cdn3.iconfinder.com/data/icons/user-avatars-1/512/users-3-128.png;whiteSpace=wrap;html=1;rounded=0;glass=0;treeMoving=1;treeFolding=1;" parent="CuxPN7iVu_fF-7CzVSLN-144" vertex="1">
            <mxGeometry x="160" y="170" width="180" height="70" as="geometry" />
          </mxCell>
        </UserObject>
        <UserObject label="QDir" name="Tessa Miller" position="CFO" location="Office 1" email="me@example.com" placeholders="1" link="https://www.draw.io" id="CuxPN7iVu_fF-7CzVSLN-159">
          <mxCell style="label;image=https://cdn3.iconfinder.com/data/icons/user-avatars-1/512/users-3-128.png;whiteSpace=wrap;html=1;rounded=0;glass=0;treeMoving=1;treeFolding=1;" parent="CuxPN7iVu_fF-7CzVSLN-144" vertex="1">
            <mxGeometry x="630" y="60" width="180" height="70" as="geometry" />
          </mxCell>
        </UserObject>
        <mxCell id="CuxPN7iVu_fF-7CzVSLN-162" value="QStringData Family" style="swimlane;html=1;startSize=20;horizontal=1;containerType=tree;glass=0;" parent="1" vertex="1">
          <mxGeometry x="1910" y="970" width="860" height="380" as="geometry">
            <mxRectangle x="40" y="80" width="90" height="30" as="alternateBounds" />
          </mxGeometry>
        </mxCell>
        <UserObject label="QString" name="Tessa Miller" position="CFO" location="Office 1" email="me@example.com" placeholders="1" link="https://www.draw.io" id="CuxPN7iVu_fF-7CzVSLN-167">
          <mxCell style="label;image=https://cdn3.iconfinder.com/data/icons/user-avatars-1/512/users-3-128.png;whiteSpace=wrap;html=1;rounded=0;glass=0;treeMoving=1;treeFolding=1;" parent="CuxPN7iVu_fF-7CzVSLN-162" vertex="1">
            <mxGeometry x="510" y="170" width="180" height="70" as="geometry" />
          </mxCell>
        </UserObject>
        <UserObject label="QByteArray" name="Tessa Miller" position="CFO" location="Office 1" email="me@example.com" placeholders="1" link="https://www.draw.io" id="CuxPN7iVu_fF-7CzVSLN-168">
          <mxCell style="label;image=https://cdn3.iconfinder.com/data/icons/user-avatars-1/512/users-3-128.png;whiteSpace=wrap;html=1;rounded=0;glass=0;treeMoving=1;treeFolding=1;" parent="CuxPN7iVu_fF-7CzVSLN-162" vertex="1">
            <mxGeometry x="210" y="170" width="180" height="70" as="geometry" />
          </mxCell>
        </UserObject>
        <mxCell id="CuxPN7iVu_fF-7CzVSLN-169" value="QLogging Family" style="swimlane;html=1;startSize=20;horizontal=1;containerType=tree;glass=0;" parent="1" vertex="1">
          <mxGeometry x="1910" y="1400" width="860" height="380" as="geometry">
            <mxRectangle x="40" y="80" width="90" height="30" as="alternateBounds" />
          </mxGeometry>
        </mxCell>
        <UserObject label="QMessageLogger" name="Tessa Miller" position="CFO" location="Office 1" email="me@example.com" placeholders="1" link="https://www.draw.io" id="CuxPN7iVu_fF-7CzVSLN-171">
          <mxCell style="label;image=https://cdn3.iconfinder.com/data/icons/user-avatars-1/512/users-3-128.png;whiteSpace=wrap;html=1;rounded=0;glass=0;treeMoving=1;treeFolding=1;" parent="CuxPN7iVu_fF-7CzVSLN-169" vertex="1">
            <mxGeometry x="210" y="160" width="180" height="70" as="geometry" />
          </mxCell>
        </UserObject>
        <UserObject label="QLoggingCategory" name="Tessa Miller" position="CFO" location="Office 1" email="me@example.com" placeholders="1" link="https://www.draw.io" id="CuxPN7iVu_fF-7CzVSLN-172">
          <mxCell style="label;image=https://cdn3.iconfinder.com/data/icons/user-avatars-1/512/users-3-128.png;whiteSpace=wrap;html=1;rounded=0;glass=0;treeMoving=1;treeFolding=1;" parent="CuxPN7iVu_fF-7CzVSLN-169" vertex="1">
            <mxGeometry x="510" y="160" width="180" height="70" as="geometry" />
          </mxCell>
        </UserObject>
        <UserObject label="QDebug" name="Tessa Miller" position="CFO" location="Office 1" email="me@example.com" placeholders="1" link="https://www.draw.io" id="CuxPN7iVu_fF-7CzVSLN-173">
          <mxCell style="label;image=https://cdn3.iconfinder.com/data/icons/user-avatars-1/512/users-3-128.png;whiteSpace=wrap;html=1;rounded=0;glass=0;treeMoving=1;treeFolding=1;" parent="CuxPN7iVu_fF-7CzVSLN-169" vertex="1">
            <mxGeometry x="210" y="283" width="180" height="70" as="geometry" />
          </mxCell>
        </UserObject>
        <mxCell id="CuxPN7iVu_fF-7CzVSLN-181" value="" style="edgeStyle=none;curved=1;rounded=0;orthogonalLoop=1;jettySize=auto;html=1;fontSize=12;startSize=8;endSize=8;" parent="1" source="CuxPN7iVu_fF-7CzVSLN-177" target="CuxPN7iVu_fF-7CzVSLN-180" edge="1">
          <mxGeometry relative="1" as="geometry" />
        </mxCell>
        <UserObject label="QCoreApplication" name="Tessa Miller" position="CFO" location="Office 1" email="me@example.com" placeholders="1" link="https://www.draw.io" id="CuxPN7iVu_fF-7CzVSLN-177">
          <mxCell style="label;image=https://cdn3.iconfinder.com/data/icons/user-avatars-1/512/users-3-128.png;whiteSpace=wrap;html=1;rounded=0;glass=0;treeMoving=1;treeFolding=1;" parent="1" vertex="1">
            <mxGeometry x="670" y="880" width="180" height="70" as="geometry" />
          </mxCell>
        </UserObject>
        <mxCell id="CuxPN7iVu_fF-7CzVSLN-183" value="" style="edgeStyle=none;curved=1;rounded=0;orthogonalLoop=1;jettySize=auto;html=1;fontSize=12;startSize=8;endSize=8;" parent="1" source="CuxPN7iVu_fF-7CzVSLN-180" target="CuxPN7iVu_fF-7CzVSLN-182" edge="1">
          <mxGeometry relative="1" as="geometry" />
        </mxCell>
        <UserObject label="QGuiApplication" name="Tessa Miller" position="CFO" location="Office 1" email="me@example.com" placeholders="1" link="https://www.draw.io" id="CuxPN7iVu_fF-7CzVSLN-180">
          <mxCell style="label;image=https://cdn3.iconfinder.com/data/icons/user-avatars-1/512/users-3-128.png;whiteSpace=wrap;html=1;rounded=0;glass=0;treeMoving=1;treeFolding=1;" parent="1" vertex="1">
            <mxGeometry x="670" y="1070" width="180" height="70" as="geometry" />
          </mxCell>
        </UserObject>
        <UserObject label="QApplication" name="Tessa Miller" position="CFO" location="Office 1" email="me@example.com" placeholders="1" link="https://www.draw.io" id="CuxPN7iVu_fF-7CzVSLN-182">
          <mxCell style="label;image=https://cdn3.iconfinder.com/data/icons/user-avatars-1/512/users-3-128.png;whiteSpace=wrap;html=1;rounded=0;glass=0;treeMoving=1;treeFolding=1;" parent="1" vertex="1">
            <mxGeometry x="670" y="1260" width="180" height="70" as="geometry" />
          </mxCell>
        </UserObject>
        <mxCell id="CuxPN7iVu_fF-7CzVSLN-187" value="" style="edgeStyle=none;curved=1;rounded=0;orthogonalLoop=1;jettySize=auto;html=1;fontSize=12;startSize=8;endSize=8;" parent="1" source="CuxPN7iVu_fF-7CzVSLN-185" target="CuxPN7iVu_fF-7CzVSLN-186" edge="1">
          <mxGeometry relative="1" as="geometry" />
        </mxCell>
        <UserObject label="QEvent" name="Tessa Miller" position="CFO" location="Office 1" email="me@example.com" placeholders="1" link="https://www.draw.io" id="CuxPN7iVu_fF-7CzVSLN-185">
          <mxCell style="label;image=https://cdn3.iconfinder.com/data/icons/user-avatars-1/512/users-3-128.png;whiteSpace=wrap;html=1;rounded=0;glass=0;treeMoving=1;treeFolding=1;" parent="1" vertex="1">
            <mxGeometry x="-100" y="-1100" width="180" height="80" as="geometry" />
          </mxCell>
        </UserObject>
        <mxCell id="CuxPN7iVu_fF-7CzVSLN-189" value="" style="edgeStyle=none;curved=1;rounded=0;orthogonalLoop=1;jettySize=auto;html=1;fontSize=12;startSize=8;endSize=8;" parent="1" source="CuxPN7iVu_fF-7CzVSLN-186" target="CuxPN7iVu_fF-7CzVSLN-188" edge="1">
          <mxGeometry relative="1" as="geometry" />
        </mxCell>
        <UserObject label="QInputEvent" name="Tessa Miller" position="CFO" location="Office 1" email="me@example.com" placeholders="1" link="https://www.draw.io" id="CuxPN7iVu_fF-7CzVSLN-186">
          <mxCell style="label;image=https://cdn3.iconfinder.com/data/icons/user-avatars-1/512/users-3-128.png;whiteSpace=wrap;html=1;rounded=0;glass=0;treeMoving=1;treeFolding=1;" parent="1" vertex="1">
            <mxGeometry x="-100" y="-900" width="180" height="80" as="geometry" />
          </mxCell>
        </UserObject>
        <mxCell id="CuxPN7iVu_fF-7CzVSLN-191" value="" style="edgeStyle=none;curved=1;rounded=0;orthogonalLoop=1;jettySize=auto;html=1;fontSize=12;startSize=8;endSize=8;" parent="1" source="CuxPN7iVu_fF-7CzVSLN-188" target="CuxPN7iVu_fF-7CzVSLN-190" edge="1">
          <mxGeometry relative="1" as="geometry" />
        </mxCell>
        <UserObject label="QPointerEvent" name="Tessa Miller" position="CFO" location="Office 1" email="me@example.com" placeholders="1" link="https://www.draw.io" id="CuxPN7iVu_fF-7CzVSLN-188">
          <mxCell style="label;image=https://cdn3.iconfinder.com/data/icons/user-avatars-1/512/users-3-128.png;whiteSpace=wrap;html=1;rounded=0;glass=0;treeMoving=1;treeFolding=1;" parent="1" vertex="1">
            <mxGeometry x="-100" y="-700" width="180" height="80" as="geometry" />
          </mxCell>
        </UserObject>
        <UserObject label="QMouseEvent" name="Tessa Miller" position="CFO" location="Office 1" email="me@example.com" placeholders="1" link="https://www.draw.io" id="CuxPN7iVu_fF-7CzVSLN-193">
          <mxCell style="label;image=https://cdn3.iconfinder.com/data/icons/user-avatars-1/512/users-3-128.png;whiteSpace=wrap;html=1;rounded=0;glass=0;treeMoving=1;treeFolding=1;" parent="1" vertex="1">
            <mxGeometry x="-100" y="-310" width="180" height="80" as="geometry" />
          </mxCell>
        </UserObject>
        <mxCell id="CuxPN7iVu_fF-7CzVSLN-192" value="" style="edgeStyle=none;curved=1;rounded=0;orthogonalLoop=1;jettySize=auto;html=1;fontSize=12;startSize=8;endSize=8;" parent="1" source="CuxPN7iVu_fF-7CzVSLN-190" target="CuxPN7iVu_fF-7CzVSLN-193" edge="1">
          <mxGeometry relative="1" as="geometry">
            <mxPoint x="-1280" y="-330" as="sourcePoint" />
          </mxGeometry>
        </mxCell>
        <mxCell id="CuxPN7iVu_fF-7CzVSLN-197" value="" style="edgeStyle=none;curved=1;rounded=0;orthogonalLoop=1;jettySize=auto;html=1;fontSize=12;startSize=8;endSize=8;" parent="1" source="CuxPN7iVu_fF-7CzVSLN-195" target="CuxPN7iVu_fF-7CzVSLN-196" edge="1">
          <mxGeometry relative="1" as="geometry" />
        </mxCell>
        <UserObject label="QGraphicEffect" name="Tessa Miller" position="CFO" location="Office 1" email="me@example.com" placeholders="1" link="https://www.draw.io" id="CuxPN7iVu_fF-7CzVSLN-195">
          <mxCell style="label;image=https://cdn3.iconfinder.com/data/icons/user-avatars-1/512/users-3-128.png;whiteSpace=wrap;html=1;rounded=0;glass=0;treeMoving=1;treeFolding=1;" parent="1" vertex="1">
            <mxGeometry x="610" y="1890" width="180" height="70" as="geometry" />
          </mxCell>
        </UserObject>
        <UserObject label="QGraphicOpacityEffect" name="Tessa Miller" position="CFO" location="Office 1" email="me@example.com" placeholders="1" link="https://www.draw.io" id="CuxPN7iVu_fF-7CzVSLN-196">
          <mxCell style="label;image=https://cdn3.iconfinder.com/data/icons/user-avatars-1/512/users-3-128.png;whiteSpace=wrap;html=1;rounded=0;glass=0;treeMoving=1;treeFolding=1;" parent="1" vertex="1">
            <mxGeometry x="610" y="2080" width="200" height="70" as="geometry" />
          </mxCell>
        </UserObject>
        <mxCell id="CuxPN7iVu_fF-7CzVSLN-201" value="" style="edgeStyle=none;curved=1;rounded=0;orthogonalLoop=1;jettySize=auto;html=1;fontSize=12;startSize=8;endSize=8;" parent="1" source="CuxPN7iVu_fF-7CzVSLN-199" target="CuxPN7iVu_fF-7CzVSLN-200" edge="1">
          <mxGeometry relative="1" as="geometry" />
        </mxCell>
        <UserObject label="QAbstractAnimation" name="Tessa Miller" position="CFO" location="Office 1" email="me@example.com" placeholders="1" link="https://www.draw.io" id="CuxPN7iVu_fF-7CzVSLN-199">
          <mxCell style="label;image=https://cdn3.iconfinder.com/data/icons/user-avatars-1/512/users-3-128.png;whiteSpace=wrap;html=1;rounded=0;glass=0;treeMoving=1;treeFolding=1;" parent="1" vertex="1">
            <mxGeometry x="920" y="2090" width="180" height="70" as="geometry" />
          </mxCell>
        </UserObject>
        <mxCell id="CuxPN7iVu_fF-7CzVSLN-203" value="" style="edgeStyle=none;curved=1;rounded=0;orthogonalLoop=1;jettySize=auto;html=1;fontSize=12;startSize=8;endSize=8;" parent="1" source="CuxPN7iVu_fF-7CzVSLN-200" target="CuxPN7iVu_fF-7CzVSLN-202" edge="1">
          <mxGeometry relative="1" as="geometry" />
        </mxCell>
        <UserObject label="QVariantAnimation" name="Tessa Miller" position="CFO" location="Office 1" email="me@example.com" placeholders="1" link="https://www.draw.io" id="CuxPN7iVu_fF-7CzVSLN-200">
          <mxCell style="label;image=https://cdn3.iconfinder.com/data/icons/user-avatars-1/512/users-3-128.png;whiteSpace=wrap;html=1;rounded=0;glass=0;treeMoving=1;treeFolding=1;" parent="1" vertex="1">
            <mxGeometry x="920" y="2280" width="180" height="70" as="geometry" />
          </mxCell>
        </UserObject>
        <UserObject label="QPropertyAnimation" name="Tessa Miller" position="CFO" location="Office 1" email="me@example.com" placeholders="1" link="https://www.draw.io" id="CuxPN7iVu_fF-7CzVSLN-202">
          <mxCell style="label;image=https://cdn3.iconfinder.com/data/icons/user-avatars-1/512/users-3-128.png;whiteSpace=wrap;html=1;rounded=0;glass=0;treeMoving=1;treeFolding=1;" parent="1" vertex="1">
            <mxGeometry x="920" y="2470" width="180" height="70" as="geometry" />
          </mxCell>
        </UserObject>
        <UserObject label="QElapsedTimer" name="Tessa Miller" position="CFO" location="Office 1" email="me@example.com" placeholders="1" link="https://www.draw.io" id="CuxPN7iVu_fF-7CzVSLN-204">
          <mxCell style="label;image=https://cdn3.iconfinder.com/data/icons/user-avatars-1/512/users-3-128.png;whiteSpace=wrap;html=1;rounded=0;glass=0;treeMoving=1;treeFolding=1;" parent="1" vertex="1">
            <mxGeometry x="-100" y="-140" width="180" height="80" as="geometry" />
          </mxCell>
        </UserObject>
        <UserObject label="QTimer&amp;nbsp;" name="Tessa Miller" position="CFO" location="Office 1" email="me@example.com" placeholders="1" link="https://www.draw.io" id="CuxPN7iVu_fF-7CzVSLN-205">
          <mxCell style="label;image=https://cdn3.iconfinder.com/data/icons/user-avatars-1/512/users-3-128.png;whiteSpace=wrap;html=1;rounded=0;glass=0;treeMoving=1;treeFolding=1;" parent="1" vertex="1">
            <mxGeometry x="160" y="-140" width="180" height="80" as="geometry" />
          </mxCell>
        </UserObject>
      </root>
    </mxGraphModel>
  </diagram>
</mxfile>
